<?xml version="1.0" encoding="UTF-8" standalone="no"?>
<svg
   xmlns:dc="http://purl.org/dc/elements/1.1/"
   xmlns:cc="http://creativecommons.org/ns#"
   xmlns:rdf="http://www.w3.org/1999/02/22-rdf-syntax-ns#"
   xmlns:svg="http://www.w3.org/2000/svg"
   xmlns="http://www.w3.org/2000/svg"
   id="svg2"
   height="92.5px"
   version="1.1"
   viewBox="0 0 92.5 92.5"
   width="92.5px"
   xml:space="preserve"><title
     id="title4139">Printer</title><metadata
     id="metadata10"><rdf:RDF><cc:Work
         rdf:about=""><dc:format>image/svg+xml</dc:format><dc:type
           rdf:resource="http://purl.org/dc/dcmitype/StillImage" /><dc:title>Printer</dc:title></cc:Work></rdf:RDF></metadata><defs
     id="defs8" /><path
     id="path4"
     style="fill:#00aeef"
     d="M 46.25 0 A 46.25 46.25 0 0 0 0 46.25 A 46.25 46.25 0 0 0 46.25 92.5 A 46.25 46.25 0 0 0 92.5 46.25 A 46.25 46.25 0 0 0 46.25 0 z M 46.25 1.4980469 C 70.959924 1.4980469 91.001953 21.540076 91.001953 46.25 C 91.001953 70.959924 70.959924 91.001953 46.25 91.001953 C 21.540076 91.001953 1.4980469 70.959924 1.4980469 46.25 C 1.4980469 21.540076 21.540076 1.4980469 46.25 1.4980469 z M 46.25 2.4980469 C 22.080516 2.4980469 2.4980469 22.080516 2.4980469 46.25 C 2.4980469 70.419484 22.080516 90.001953 46.25 90.001953 C 70.419484 90.001953 90.001953 70.419484 90.001953 46.25 C 90.001953 22.080516 70.419484 2.4980469 46.25 2.4980469 z M 26.248047 17.5 L 64.533203 17.5 C 65.175383 17.5 65.735226 17.865736 66.103516 18.376953 C 66.471852 18.888171 66.679688 19.555003 66.679688 20.283203 L 66.679688 36.267578 L 72.080078 36.267578 C 73.342078 36.267578 74.363281 37.291734 74.363281 38.552734 L 74.363281 61.957031 C 74.363281 63.219031 73.342078 64.242188 72.080078 64.242188 L 69.441406 64.242188 L 69.441406 64.666016 L 69.148438 64.666016 C 69.010996 64.97076 68.938217 65.316885 68.658203 65.507812 C 68.211894 65.812129 67.637777 65.978516 67.013672 65.978516 L 62.755859 65.978516 L 62.755859 72.884766 C 62.755859 73.707766 62.123703 74.375 61.345703 74.375 L 28.580078 74.375 C 27.802078 74.375 27.171875 73.707766 27.171875 72.884766 L 27.171875 65.978516 L 22.246094 65.978516 C 21.622245 65.978516 21.049794 65.812162 20.603516 65.507812 C 20.17827 65.21781 19.861811 64.768704 19.832031 64.242188 L 18.988281 64.242188 C 17.727281 64.242188 16.703125 63.219031 16.703125 61.957031 L 16.703125 38.552734 C 16.703125 37.291734 17.726281 36.267578 18.988281 36.267578 L 24.101562 36.267578 L 24.101562 20.283203 C 24.101564 19.555294 24.309179 18.8882 24.677734 18.376953 C 25.046289 17.865707 25.605684 17.5 26.248047 17.5 z M 26.248047 18.5 C 25.98041 18.5 25.717679 18.645434 25.490234 18.960938 C 25.262789 19.27644 25.101564 19.750113 25.101562 20.283203 L 25.101562 36.267578 L 25.101562 43.689453 C 25.101565 44.223121 25.262849 44.698346 25.490234 45.013672 C 25.71762 45.328997 25.980226 45.474609 26.248047 45.474609 L 64.535156 45.474609 C 64.668975 45.474609 64.802092 45.437618 64.929688 45.361328 C 65.057282 45.285038 65.179357 45.169449 65.292969 45.011719 C 65.34952 44.933207 65.40247 44.844751 65.449219 44.748047 C 65.495968 44.651343 65.536198 44.547326 65.570312 44.435547 C 65.638542 44.211989 65.678987 43.960465 65.679688 43.695312 L 65.679688 36.267578 L 65.679688 20.283203 C 65.679688 19.749403 65.520132 19.276219 65.292969 18.960938 C 65.065805 18.645655 64.801024 18.5 64.533203 18.5 L 26.248047 18.5 z M 31.154297 26.349609 L 59.628906 26.349609 L 59.628906 27.349609 L 31.154297 27.349609 L 31.154297 26.349609 z M 31.154297 32.628906 L 59.628906 32.628906 L 59.628906 33.628906 L 31.154297 33.628906 L 31.154297 32.628906 z M 31.154297 38.908203 L 59.628906 38.908203 L 59.628906 39.908203 L 31.154297 39.908203 L 31.154297 38.908203 z M 22.246094 49.898438 C 21.806199 49.898434 21.416706 50.026332 21.166016 50.197266 C 21.040669 50.282732 20.953527 50.370034 20.898438 50.457031 C 20.843348 50.544029 20.820312 50.630721 20.820312 50.712891 L 20.820312 64.166016 C 20.820312 64.190516 20.839279 64.21698 20.84375 64.242188 C 20.869083 64.385028 20.952689 64.53616 21.166016 64.681641 C 21.416987 64.852794 21.806942 64.978516 22.246094 64.978516 L 27.171875 64.978516 L 27.171875 57.599609 C 27.171875 56.776609 27.802078 56.107422 28.580078 56.107422 L 61.345703 56.107422 C 62.123703 56.107422 62.755859 56.776609 62.755859 57.599609 L 62.755859 64.978516 L 67.013672 64.978516 C 67.453567 64.978516 67.843059 64.852574 68.09375 64.681641 C 68.307102 64.536168 68.390782 64.385627 68.416016 64.242188 C 68.420432 64.21708 68.439453 64.190494 68.439453 64.166016 L 68.439453 63.666016 L 68.441406 63.666016 L 68.441406 50.712891 C 68.441406 50.548781 68.346584 50.368268 68.095703 50.197266 C 67.844822 50.026264 67.454933 49.898437 67.015625 49.898438 L 22.246094 49.898438 z " /></svg>